# AST/ASF file generated using VICON BodyLanguage
# -----------------------------------------------
:version 1.10
:name VICON
:units
  mass 1.0
  length 0.45
  angle deg
:documentation
   .ast/.asf automatically generated from VICON data using
   VICON BodyBuilder and BodyLanguage model FoxedUp or BRILLIANT.MOD
:root
   order TX TY TZ RX RY RZ
   axis XYZ
   position 0 0 0  
   orientation 0 0 0 
:bonedata
  begin
     id 1 
     name lhipjoint
     direction 0.662698 -0.695252 0.27831 
     length 2.53073 
     axis 0 0 0  XYZ
  end
  begin
     id 2 
     name lfemur
     direction 0.34202 -0.939693 0  
     length 7.16147  
     axis 0 0 20  XYZ
    dof rx ry rz
    limits (-160.0 20.0)
           (-70.0 70.0)
           (-60.0 70.0)
  end
  begin
     id 3 
     name ltibia
     direction 0.34202 -0.939693 0   
     length 7.63967   
     axis 0 0 20   XYZ
    dof rx
    limits (-10.0 170.0)
  end
  begin
     id 4 
     name lfoot
     direction 0.0938457 -0.257721 0.961651   
     length 1.89793   
     axis -90 7.62852e-016 20   XYZ
    dof rx rz
    limits (-45.0 90.0)
           (-70.0 20.0)
  end
  begin
     id 5 
     name ltoes
     direction -0.00116841 -0.0030592 0.999995   
     length 0.955649   
     axis -90 7.62852e-016 20   XYZ
    dof rx
    limits (-90.0 20.0)
  end
  begin
     id 6 
     name rhipjoint
     direction -0.649445 -0.705948 0.282592   
     length 2.49238  
     axis 0 0 0  XYZ 
  end
  begin
     id 7 
     name rfemur
     direction -0.34202 -0.939693 0   
     length 6.90728   
     axis 0 0 -20   XYZ
    dof rx ry rz
    limits (-160.0 20.0)
           (-70.0 70.0)
           (-70.0 60.0)
  end
  begin
     id 8 
     name rtibia
     direction -0.34202 -0.939693 0   
     length 7.72868   
     axis 0 0 -20   XYZ
    dof rx
    limits (-10.0 170.0)
 end
 begin
     id 9 
     name rfoot
     direction -0.0920068 -0.252865 0.963117   
     length 1.97476  
     axis -90 -7.62852e-016 -20   XYZ
    dof rx rz
    limits (-45.0 90.0)
           (-20.0 70.0)
  end
  begin
     id 10 
     name rtoes
     direction 0.000391322 0.00230649 0.999997   
     length 0.992641   
     axis -90 -7.62852e-016 -20   XYZ
    dof rx
    limits (-90.0 20.0)
  end
  begin
     id 11 
     name lowerback
     direction -0.00875327 0.998321 -0.0572635   
     length 2.20024   
     axis 0 0 0   XYZ
    dof rx ry rz
    limits (-20.0 45.0)
           (-30.0 30.0)
           (-30.0 30.0)
  end
  begin
     id 12 
     name upperback
     direction 0.00753931 0.999972 -0.000360425   
     length 2.20538   
     axis 0 0 0   XYZ
    dof rx ry rz
    limits (-20.0 45.0)
           (-30.0 30.0)
           (-30.0 30.0)
  end
  begin
     id 13 
     name thorax
     direction 0.0117767 0.999601 0.0256663   
     length 2.21508   
     axis 0 0 0   XYZ
    dof rx ry rz
    limits (-20.0 45.0)
           (-30.0 30.0)
           (-30.0 30.0)
  end
  begin
     id 14 
     name lowerneck
     direction 0.060228 0.994909 0.0807986   
     length 1.7607   
     axis 0 0 0   XYZ
    dof rx ry rz
    limits (-20.0 45.0)
           (-30.0 30.0)
           (-30.0 30.0)
  end
  begin
     id 15 
     name upperneck
     direction -0.0563647 0.959594 -0.275685   
     length 1.75612   
     axis 0 0 0   XYZ
    dof rx ry rz
    limits (-20.0 45.0)
           (-30.0 30.0)
           (-30.0 30.0)
  end
  begin
     id 16
     name head
     direction -0.0161544 0.99458 -0.102714  
     length 1.79288  
     axis 0 0 0   XYZ
    dof rx ry rz
    limits (-20.0 45.0)
           (-30.0 30.0)
           (-30.0 30.0)
  end
  begin
     id 17 
     name lclavicle
     direction 0.93913 0.332189 -0.087669  
     length 3.52087  
     axis 0 0 0   XYZ
    dof ry rz
    limits (-20.0 10.0)
           (0.0 20.0)
  end
  begin
     id 18 
     name lhumerus
     direction 1 -4.48974e-011 -2.70836e-027   
     length 5.35289   
     axis -180 -30 -90   XYZ
    dof rx ry rz
    limits (-60.0 90.0)
           (-90.0 90.0)
           (-90.0 90.0)
  end
  begin
     id 19
     name lradius
     direction 1 -4.48961e-011 -9.76021e-027   
     length 3.27727   
     axis -180 -30 -90   XYZ
    dof rx
    limits (-10.0 170.0)
  end
  begin
     id 20
     name lwrist
     direction 1 -4.49103e-011 -2.23668e-026   
     length 1.63864   
     axis 1.44924e-014 90 90   XYZ
    dof ry
    limits (-180.0 0.0)
 end
  begin
     id 21 
     name lhand
     direction 1 3.0697e-005 0.000161777   
     length 0.54443   
     axis 2.85318e-014 90 90   XYZ
    dof rx rz
    limits (-90.0 90.0)
           (-45.0 45.0)
  end
  begin
     id 22 
     name lfingers
     direction 1 -4.49027e-011 -8.9447e-026   
     length 0.438912   
     axis 5.70628e-014 90 90   XYZ
    dof rx
    limits (0.0 90.0)
  end
  begin
     id 23
     name lthumb
     direction 0.707058 2.6516e-005 0.707156   
     length 0.630274   
     axis -90 45 -3.53137e-014   XYZ
    dof rx rz
    limits (-45.0 45.0)
           (-45.0 45.0)
  end
  begin
     id 24 
     name rclavicle
     direction -0.95274 0.284984 -0.105215   
     length 3.43401  
     axis 0 0 0   XYZ 
    dof ry rz
    limits (-10.0 20.0)
           (-20.0 0.0)
  end
  begin
     id 25 
     name rhumerus
     direction -0.999999 -0.000575019 -0.00106829  
     length 5.52077   
     axis -180 30 90   XYZ
    dof rx ry rz
    limits (-90.0 60.0)
           (-90.0 90.0)
           (-90.0 90.0)
  end
  begin
     id 26 
     name rradius
     direction -1 -4.4879e-011 -6.35415e-027   
     length 3.32364   
     axis -180 30 90   XYZ
    dof rx
    limits (-10.0 170.0)
  end
  begin
     id 27 
     name rwrist
     direction -1 -4.49048e-011 -9.98542e-027   
     length 1.66182   
     axis 6.32482e-015 -90 -90   XYZ
    dof ry
    limits (-180.0 0.0)
  end
  begin
     id 28
     name rhand
     direction -1 -4.48978e-011 -1.99771e-026   
     length 0.732235   
     axis 1.27479e-014 -90 -90   XYZ
    dof rx rz
    limits (-90.0 90.0)
           (-45.0 45.0)
  end
  begin
     id 29
     name rfingers
     direction -1 -4.49144e-011 -3.99245e-026   
     length 0.590347   
     axis 2.5496e-014 -90 -90   XYZ
    dof rx
    limits (0.0 90.0)
  end
  begin
     id 30
     name rthumb
     direction -0.707107 -6.35121e-011 0.707107   
     length 0.847624   
     axis -90 -45 -2.82974e-014   XYZ
    dof rx rz
    limits (-45.0 45.0)
           (-45.0 45.0)
  end
:hierarchy
  begin
    root lhipjoint rhipjoint lowerback
    lhipjoint lfemur
    lfemur ltibia
    ltibia lfoot
    lfoot ltoes
    rhipjoint rfemur
    rfemur rtibia
    rtibia rfoot
    rfoot rtoes
    lowerback upperback
    upperback thorax
    thorax lowerneck lclavicle rclavicle
    lowerneck upperneck
    upperneck head
    lclavicle lhumerus
    lhumerus lradius
    lradius lwrist
    lwrist lhand lthumb
    lhand lfingers
    rclavicle rhumerus
    rhumerus rradius
    rradius rwrist
    rwrist rhand rthumb
    rhand rfingers
  end

#!OML:ASF G:\Work\Work\Patient Classification 1\Elijah\terrain1\Elijah.ASF
:FULLY-SPECIFIED
:DEGREES
1712
root -5.26894 17.6635 -1.25867 361.461 -1.91268 -3.17043
lowerback 6.50178 0.248461 -2.28941
upperback 2.43938 0.177192 -0.689126
thorax -1.13585 0.0821147 0.563495
lowerneck -7.15383 16.6666 15.6071
upperneck 20.1935 26.6006 -21.5492
head 13.2637 11.6077 -6.02821
rclavicle 1.0138e-014 -8.74653e-015
rhumerus -40.354 -2.66842 -82.6686
rradius 32.0106
rwrist -2.68602
rhand -18.9986 21.5894
rfingers 7.12502
rthumb 7.30649 -8.26446
lclavicle 1.0138e-014 -8.74653e-015
lhumerus -34.1714 14.4185 74.7995
lradius 19.0535
lwrist -17.4033
lhand -14.9768 29.4594
lfingers 7.12502
lthumb 11.1871 59.1412
rfemur -26.509 -6.24657 15.5389
rtibia 95.8621
rfoot -8.9045 10.6086
rtoes -34.1994
lfemur -21.9415 -0.230053 -22.9405
ltibia 40.7714
lfoot -12.476 -7.90221
ltoes 16.11
1713
root -5.26434 17.6695 -1.16475 361.292 -1.38252 -3.34546
lowerback 6.42414 0.200759 -1.7518
upperback 2.76713 0.150975 -0.940799
thorax -0.753442 0.0680649 0.00609886
lowerneck -7.29059 16.7807 15.4364
upperneck 20.255 26.7206 -21.3236
head 13.2694 11.6495 -5.87713
rclavicle -2.08724e-014 -7.95139e-015
rhumerus -40.0123 -2.31698 -83.6891
rradius 31.6739
rwrist -1.86783
rhand -17.7177 21.9115
rfingers 7.12502
rthumb 8.54281 -7.89567
lclavicle -2.08724e-014 -7.95139e-015
lhumerus -32.715 14.4851 74.7407
lradius 19.4021
lwrist -18.3641
lhand -16.1549 29.2769
lfingers 7.12502
lthumb 10.0507 59.0169
rfemur -27.719 -6.21282 16.1558
rtibia 97.0854
rfoot -8.76623 9.58577
rtoes -33.9488
lfemur -21.3475 -0.595828 -22.8006
ltibia 40.5777
lfoot -12.8404 -7.68953
ltoes 12.7595
1714
root -5.26529 17.6832 -1.07221 361.28 -0.637396 -3.35335
lowerback 6.41289 0.0956743 -1.80536
upperback 2.76989 0.00913118 -0.933627
thorax -0.742465 -0.00301351 0.0533528
lowerneck -7.15228 16.8182 15.2574
upperneck 20.57 26.8907 -21.2752
head 13.3721 11.71 -5.81465
rclavicle -9.93923e-016 4.77083e-015
rhumerus -40.3161 -1.84684 -84.1632
rradius 31.7356
rwrist -0.653264
rhand -15.6368 22.1593
rfingers 7.12502
rthumb 10.5505 -7.55591
lclavicle -9.93923e-016 4.77083e-015
lhumerus -32.2291 14.3898 74.99
lradius 20.4438
lwrist -18.4837
lhand -17.1498 28.7708
lfingers 7.12502
lthumb 9.09078 58.5549
rfemur -29.1331 -6.51331 16.6318
rtibia 98.3286
rfoot -8.40596 8.81131
rtoes -30.5809
lfemur -20.8726 -1.18862 -22.8251
ltibia 40.1777
lfoot -13.5176 -7.38975
ltoes 8.56961
1715
root -5.26431 17.7047 -0.977886 361.248 0.229337 -2.92865
lowerback 6.519 0.0322665 -2.3119
upperback 2.84324 -0.107376 -1.04289
thorax -0.72269 -0.0643491 0.233098
lowerneck -7.95889 16.8348 15.0665
upperneck 21.3486 27.0435 -21.1436
head 13.8439 11.6654 -5.65814
rclavicle 1.07344e-014 -8.74653e-015
rhumerus -40.5147 -1.59826 -84.5245
rradius 31.8932
rwrist 0.865208
rhand -13.1888 22.0368
rfingers 7.12502
rthumb 12.9112 -7.5438
lclavicle 1.07344e-014 -8.74653e-015
lhumerus -31.6672 13.7284 75.5528
lradius 21.7719
lwrist -17.8722
lhand -17.8543 29.0139
lfingers 7.12502
lthumb 8.4109 58.8264
rfemur -30.4885 -7.04825 16.5328
rtibia 99.5647
rfoot -7.93856 7.89601
rtoes -26.174
lfemur -20.2592 -1.89414 -23.3349
ltibia 39.6304
lfoot -13.1607 -7.40879
ltoes 11.4712
1716
root -5.2612 17.7281 -0.88929 361.233 0.984509 -2.54399
lowerback 6.69323 0.0151762 -2.66001
upperback 2.95289 -0.156013 -1.2166
thorax -0.704251 -0.0908055 0.253097
lowerneck -7.35588 16.886 15.3402
upperneck 20.9726 27.1436 -21.4587
head 13.6965 11.7743 -5.82728
rclavicle 2.34566e-014 9.54166e-015
rhumerus -40.5743 -1.28297 -85.0319
rradius 31.8127
rwrist 2.41869
rhand -11.2556 22.7812
rfingers 7.12502
rthumb 14.7742 -6.6722
lclavicle 2.34566e-014 9.54166e-015
lhumerus -30.8726 12.4537 76.3325
lradius 23.2164
lwrist -16.4602
lhand -18.4758 29.6039
lfingers 7.12502
lthumb 7.81111 59.4396
rfemur -32.0258 -7.51819 16.5301
rtibia 100.758
rfoot -5.98378 6.72992
rtoes -17.3873
lfemur -19.6068 -2.49406 -23.7895
ltibia 38.9998
lfoot -13.0706 -7.32935
ltoes 11.4968
1717
root -5.26193 17.7595 -0.798511 361.275 1.73289 -2.37239
lowerback 6.80361 -0.0631009 -2.9446
upperback 2.96624 -0.280655 -1.20859
thorax -0.746661 -0.154523 0.429948
lowerneck -7.98059 17.0569 14.8135
upperneck 21.4746 27.4416 -21.0782
head 13.9372 11.8162 -5.49466
rclavicle 1.5704e-014 1.03368e-014
rhumerus -40.8391 -0.591541 -85.4881
rradius 31.937
rwrist 3.74016
rhand -9.31001 23.9626
rfingers 7.12502
rthumb 16.648 -5.34345
lclavicle 1.5704e-014 1.03368e-014
lhumerus -30.265 11.3151 77.1316
lradius 24.5815
lwrist -14.5823
lhand -19.4252 29.409
lfingers 7.12502
lthumb 6.89474 59.2768
rfemur -33.6694 -7.97489 16.9151
rtibia 101.817
rfoot -8.4557 7.09017
rtoes -25.8615
lfemur -18.9694 -3.06046 -23.9795
ltibia 38.3249
lfoot -13.184 -7.23372
ltoes 7.71726
1718
root -5.26331 17.7975 -0.705956 361.367 2.46373 -2.02755
lowerback 7.22568 -0.127995 -3.48648
upperback 2.78401 -0.424874 -1.18695
thorax -1.15892 -0.222433 0.769068
lowerneck -8.23719 16.9274 14.7348
upperneck 21.9235 27.3852 -21.1231
head 14.1704 11.7383 -5.51334
rclavicle 8.15017e-015 -3.18055e-015
rhumerus -41.4508 0.228577 -85.9348
rradius 32.5085
rwrist 4.79144
rhand -7.21124 24.3827
rfingers 7.12502
rthumb 18.6677 -4.74155
lclavicle 8.15017e-015 -3.18055e-015
lhumerus -30.0284 10.4257 77.8083
lradius 26.0004
lwrist -12.7667
lhand -20.2844 28.6441
lfingers 7.12502
lthumb 6.06525 58.5373
rfemur -35.308 -8.4302 17.0999
rtibia 102.734
rfoot -10.7641 7.57092
rtoes -34.3745
lfemur -18.3344 -3.56705 -24.3553
ltibia 37.6328
lfoot -12.5713 -7.28595
ltoes 7.7315
